<svg id="visual" viewBox="0 0 900 600" width="900" height="600" xmlns="http://www.w3.org/2000/svg" xmlns:xlink="http://www.w3.org/1999/xlink" version="1.1"><rect x="0" y="0" width="900" height="600" fill="#dac6a8"></rect><defs><linearGradient id="grad1_0" x1="33.3%" y1="0%" x2="100%" y2="100%"><stop offset="20%" stop-color="#dac6a8" stop-opacity="1"></stop><stop offset="80%" stop-color="#dac6a8" stop-opacity="1"></stop></linearGradient></defs><defs><linearGradient id="grad2_0" x1="0%" y1="0%" x2="66.7%" y2="100%"><stop offset="20%" stop-color="#dac6a8" stop-opacity="1"></stop><stop offset="80%" stop-color="#dac6a8" stop-opacity="1"></stop></linearGradient></defs><g transform="translate(900, 0)"><path d="M0 459.7C-65.4 422.5 -130.8 385.3 -203 351.6C-275.2 318 -354.2 287.9 -398.1 229.9C-442 171.8 -450.9 85.9 -459.7 0L0 0Z" fill="#3a3531"></path></g><g transform="translate(0, 600)"><path d="M0 -459.7C86.6 -451.3 173.2 -442.8 229.9 -398.1C286.5 -353.4 313.1 -272.4 346.4 -200C379.7 -127.6 419.7 -63.8 459.7 0L0 0Z" fill="#3a3531"></path></g></svg>